<svg width="24" height="24" viewBox="0 0 24 24" fill="none" xmlns="http://www.w3.org/2000/svg">
<path d="M5 5.06048C5 5.0148 5.02346 4.85193 5.33434 4.58943C5.64112 4.33039 6.13741 4.05732 6.82795 3.8107C8.20135 3.3202 10.1567 3 12.3589 3C14.561 3 16.5164 3.3202 17.8898 3.8107C18.5803 4.05732 19.0766 4.33039 19.3834 4.58943C19.6943 4.85193 19.7177 5.0148 19.7177 5.06048C19.7177 5.10616 19.6943 5.26904 19.3834 5.53154C19.0766 5.79058 18.5803 6.06365 17.8898 6.31027C16.5164 6.80077 14.561 7.12097 12.3589 7.12097C10.1567 7.12097 8.20135 6.80077 6.82795 6.31027C6.13741 6.06365 5.64112 5.79058 5.33434 5.53154C5.02346 5.26904 5 5.10616 5 5.06048Z" fill="#BB2649"/>
<path d="M18.4838 12.6832C18.7919 12.5732 19.0866 12.452 19.3627 12.3192C19.5244 12.2415 19.7177 12.3563 19.7177 12.5357V14.4798C19.7177 14.5255 19.6943 14.6884 19.3834 14.9509C19.0766 15.2099 18.5803 15.483 17.8898 15.7296C16.5164 16.2201 14.561 16.5403 12.3589 16.5403C10.1567 16.5403 8.20135 16.2201 6.82795 15.7296C6.13741 15.483 5.64112 15.2099 5.33434 14.9509C5.02346 14.6884 5 14.5255 5 14.4798V12.5357C5 12.3563 5.19339 12.2415 5.35507 12.3192C5.63114 12.452 5.92586 12.5732 6.23394 12.6832C7.84353 13.258 10.0091 13.5968 12.3589 13.5968C14.7086 13.5968 16.8742 13.258 18.4838 12.6832Z" fill="#BB2649"/>
<g opacity="0.3">
<path d="M18.4838 7.9733C18.7919 7.86327 19.0866 7.74213 19.3627 7.60935C19.5244 7.5316 19.7177 7.6464 19.7177 7.8258V9.76995C19.7177 9.81563 19.6943 9.97851 19.3834 10.241C19.0766 10.5 18.5803 10.7731 17.8898 11.0197C16.5164 11.5102 14.561 11.8304 12.3589 11.8304C10.1567 11.8304 8.20135 11.5102 6.82795 11.0197C6.13741 10.7731 5.64112 10.5 5.33434 10.241C5.02346 9.97851 5 9.81563 5 9.76995V7.8258C5 7.6464 5.19338 7.5316 5.35507 7.60935C5.63114 7.74213 5.92586 7.86327 6.23394 7.9733C7.84353 8.54815 10.0091 8.88689 12.3589 8.88689C14.7086 8.88689 16.8742 8.54815 18.4838 7.9733Z" fill="#BB2649"/>
<path d="M18.4838 17.3927C18.7919 17.2826 19.0866 17.1615 19.3627 17.0287C19.5244 16.951 19.7177 17.0658 19.7177 17.2452V19.1893C19.7177 19.235 19.6943 19.3979 19.3834 19.6604C19.0766 19.9194 18.5803 20.1925 17.8898 20.4391C16.5164 20.9296 14.561 21.2498 12.3589 21.2498C10.1567 21.2498 8.20135 20.9296 6.82795 20.4391C6.13741 20.1925 5.64112 19.9194 5.33434 19.6604C5.02346 19.3979 5 19.235 5 19.1893V17.2452C5 17.0658 5.19339 16.951 5.35507 17.0287C5.63114 17.1615 5.92586 17.2826 6.23394 17.3927C7.84353 17.9675 10.0091 18.3062 12.3589 18.3062C14.7086 18.3062 16.8742 17.9675 18.4838 17.3927Z" fill="#BB2649"/>
</g>
</svg>
