<svg width="24" height="24" viewBox="0 0 24 24" fill="none" xmlns="http://www.w3.org/2000/svg">
<path opacity="0.3" fill-rule="evenodd" clip-rule="evenodd" d="M6.75 1C3.57436 1 1 3.57436 1 6.75V16.75C1 19.9256 3.57436 22.5 6.75 22.5H16.75C19.9256 22.5 22.5 19.9256 22.5 16.75V6.75C22.5 3.57436 19.9256 1 16.75 1H6.75Z" fill="#BB2649"/>
<path fill-rule="evenodd" clip-rule="evenodd" d="M14.9684 6.82995C14.5389 6.40044 13.8427 6.4007 13.4135 6.83054L12.2682 7.97763L15.5468 11.2563L16.6876 10.0858C17.108 9.65453 17.1035 8.96512 16.6777 8.53927L14.9684 6.82995ZM14.971 11.847L11.6854 8.56135L7.56174 12.6912C7.26969 12.9837 7.098 13.3752 7.08062 13.7884L7.00075 15.6873C6.98102 16.1562 7.35556 16.5472 7.82455 16.5472L9.69471 16.5473C10.1392 16.5473 10.5649 16.3677 10.8753 16.0492L14.971 11.847Z" fill="#BB2649"/>
</svg>
