<svg width="48" height="48" viewBox="0 0 48 48" fill="none" xmlns="http://www.w3.org/2000/svg">
<g clip-path="url(#clip0_398_27)">
<path d="M24 48C37.2548 48 48 37.2548 48 24C48 10.7452 37.2548 0 24 0C10.7452 0 0 10.7452 0 24C0 37.2548 10.7452 48 24 48Z" fill="#25D366"/>
<path fill-rule="evenodd" clip-rule="evenodd" d="M24.7911 37.3523H24.7852C22.3967 37.3515 20.0498 36.7522 17.9653 35.6152L10.4 37.5998L12.4246 30.2046C11.1757 28.0403 10.5186 25.5853 10.5196 23.07C10.5228 15.2015 16.9248 8.7998 24.7909 8.7998C28.6086 8.80145 32.1918 10.2877 34.8862 12.9852C37.5806 15.6826 39.0636 19.2681 39.0621 23.0813C39.059 30.9481 32.6595 37.3491 24.7911 37.3523ZM18.3159 33.0317L18.749 33.2887C20.5702 34.3695 22.6578 34.9413 24.7863 34.9421H24.7911C31.3288 34.9421 36.6499 29.6209 36.6525 23.0805C36.6538 19.911 35.4212 16.9309 33.1817 14.6888C30.9422 12.4467 27.964 11.2113 24.7957 11.2102C18.2529 11.2102 12.9318 16.5309 12.9292 23.0709C12.9283 25.3122 13.5554 27.4949 14.7427 29.3834L15.0248 29.8322L13.8265 34.2093L18.3159 33.0317ZM31.4924 26.1538C31.7411 26.274 31.9091 26.3552 31.9808 26.4749C32.0699 26.6236 32.0699 27.3376 31.7729 28.1706C31.4756 29.0036 30.051 29.7638 29.3659 29.8661C28.7516 29.958 27.9741 29.9963 27.1199 29.7248C26.602 29.5605 25.9379 29.3411 25.0871 28.9737C21.7442 27.5302 19.485 24.2902 19.058 23.6778C19.0281 23.6349 19.0072 23.6049 18.9955 23.5893L18.9927 23.5855C18.804 23.3337 17.5395 21.6466 17.5395 19.9006C17.5395 18.258 18.3463 17.3971 18.7177 17.0008C18.7432 16.9737 18.7666 16.9487 18.7875 16.9258C19.1144 16.5688 19.5007 16.4795 19.7384 16.4795C19.9761 16.4795 20.2141 16.4817 20.4219 16.4922C20.4475 16.4935 20.4742 16.4933 20.5017 16.4931C20.7095 16.4919 20.9686 16.4904 21.2242 17.1043C21.3225 17.3405 21.4664 17.6908 21.6181 18.0602C21.9249 18.8072 22.264 19.6326 22.3236 19.752C22.4128 19.9305 22.4722 20.1387 22.3533 20.3767C22.3355 20.4124 22.319 20.4461 22.3032 20.4783C22.2139 20.6606 22.1483 20.7946 21.9967 20.9716C21.9372 21.0411 21.8756 21.1161 21.814 21.1911C21.6913 21.3405 21.5687 21.4899 21.4619 21.5963C21.2833 21.7741 21.0975 21.967 21.3055 22.324C21.5135 22.681 22.2292 23.8487 23.2892 24.7943C24.4288 25.8107 25.4192 26.2403 25.9212 26.458C26.0192 26.5006 26.0986 26.535 26.1569 26.5642C26.5133 26.7427 26.7213 26.7128 26.9294 26.4749C27.1374 26.2369 27.8208 25.4336 28.0584 25.0767C28.2961 24.7199 28.5339 24.7793 28.8607 24.8982C29.1877 25.0174 30.9408 25.8799 31.2974 26.0584C31.367 26.0932 31.4321 26.1247 31.4924 26.1538Z" fill="#FDFDFD"/>
</g>
<defs>
<clipPath id="clip0_398_27">
<rect width="48" height="48" fill="white"/>
</clipPath>
</defs>
</svg>
